<svg width="22" height="17" viewBox="0 0 22 17" fill="none" xmlns="http://www.w3.org/2000/svg">
<path fill-rule="evenodd" clip-rule="evenodd" d="M21.696 2.24607C20.923 2.56807 20.092 2.78307 19.221 2.88107C20.111 2.38107 20.794 1.58907 21.116 0.647074C20.282 1.10907 19.36 1.44507 18.378 1.62707C17.593 0.841074 16.472 0.351074 15.233 0.351074C12.853 0.351074 10.922 2.16007 10.922 4.39007C10.922 4.70707 10.96 5.01607 11.034 5.31107C7.45199 5.14207 4.27599 3.53407 2.14999 1.09107C1.77899 1.68807 1.56699 2.38107 1.56699 3.12207C1.56699 4.52207 2.32799 5.76007 3.48399 6.48407C2.77799 6.46207 2.11399 6.28107 1.53199 5.97807C1.53199 5.99607 1.53199 6.01107 1.53199 6.03007C1.53199 7.98707 3.01699 9.61907 4.98899 9.99007C4.62799 10.0821 4.24599 10.1301 3.85399 10.1301C3.57599 10.1301 3.30599 10.1061 3.04299 10.0601C3.59099 11.6631 5.18299 12.8321 7.06899 12.8651C5.59399 13.9481 3.73599 14.5931 1.71599 14.5931C1.36799 14.5931 1.02499 14.5741 0.687988 14.5371C2.59499 15.6821 4.86099 16.3521 7.29499 16.3521C15.223 16.3521 19.558 10.1961 19.558 4.85907C19.558 4.68307 19.553 4.51007 19.545 4.33607C20.387 3.76607 21.118 3.05507 21.696 2.24607Z" fill="white"/>
</svg>
