<?xml version="1.0" standalone="no"?>
<!DOCTYPE svg PUBLIC "-//W3C//DTD SVG 20010904//EN"
 "http://www.w3.org/TR/2001/REC-SVG-20010904/DTD/svg10.dtd">
<svg version="1.0" xmlns="http://www.w3.org/2000/svg"
 width="104.000000pt" height="104.000000pt" viewBox="0 0 104.000000 104.000000"
 preserveAspectRatio="xMidYMid meet">
<metadata>
Created by potrace 1.14, written by Peter Selinger 2001-2017
</metadata>
<g transform="translate(0.000000,104.000000) scale(0.100000,-0.100000)"
fill="#000000" stroke="none">
<path d="M459 986 c-2 -3 -18 -8 -34 -11 -60 -12 -115 -35 -115 -47 0 -5 -4
-7 -8 -4 -5 3 -18 -4 -30 -14 -12 -11 -24 -20 -28 -20 -11 0 -104 -104 -104
-116 0 -7 -3 -14 -7 -16 -12 -5 -44 -77 -58 -130 -15 -55 -17 -177 -3 -222 5
-17 11 -38 13 -46 20 -82 149 -249 193 -250 6 0 12 -3 12 -8 0 -14 90 -50 141
-56 14 -1 31 -6 38 -10 17 -11 140 -4 186 10 88 27 172 76 220 129 41 44 65
75 59 75 -3 0 4 13 15 29 12 16 24 43 27 60 4 17 10 31 14 31 5 0 7 11 5 25
-1 14 2 25 6 25 5 0 9 39 9 86 0 65 -3 84 -12 78 -10 -5 -10 -4 -1 6 8 9 9 18
3 25 -5 6 -11 20 -13 31 -8 39 -40 114 -49 114 -5 0 -8 4 -8 10 0 34 -165 182
-183 163 -4 -3 -7 -2 -7 4 0 10 -68 36 -95 36 -8 0 -15 3 -15 7 0 8 -163 14
-171 6z"/>
</g>
</svg>
